<svg width="1000" height="300" viewBox="0 0 1000 300"
     xmlns="http://www.w3.org/2000/svg">

  <rect width="1000" height="300" fill="#0d1117"/>

  <g opacity="0.12" stroke="#58a6ff">
    <path d="M0 50H1000"/>
    <path d="M0 100H1000"/>
    <path d="M0 150H1000"/>
    <path d="M0 200H1000"/>
    <path d="M0 250H1000"/>

    <path d="M50 0V300"/>
    <path d="M150 0V300"/>
    <path d="M250 0V300"/>
    <path d="M350 0V300"/>
    <path d="M450 0V300"/>
    <path d="M550 0V300"/>
    <path d="M650 0V300"/>
    <path d="M750 0V300"/>
    <path d="M850 0V300"/>
    <path d="M950 0V300"/>
  </g>

  <g stroke="#58a6ff" stroke-width="2" fill="none">

    <path d="M100 220 L250 120 L400 180 L550 80 L700 160 L900 70"/>

    <circle cx="100" cy="220" r="6"/>
    <circle cx="250" cy="120" r="6"/>
    <circle cx="400" cy="180" r="6"/>
    <circle cx="550" cy="80" r="6"/>
    <circle cx="700" cy="160" r="6"/>
    <circle cx="900" cy="70" r="6"/>

  </g>

  <g fill="#58a6ff">

    <circle cx="100" cy="220" r="3"/>
    <circle cx="250" cy="120" r="3"/>
    <circle cx="400" cy="180" r="3"/>
    <circle cx="550" cy="80" r="3"/>
    <circle cx="700" cy="160" r="3"/>
    <circle cx="900" cy="70" r="3"/>

  </g>

  <text x="500" y="125"
        text-anchor="middle"
        fill="#ffffff"
        font-family="monospace"
        font-size="42"
        font-weight="bold">

    NAOUFAL CHAKKOUR

  </text>

  <text x="500" y="165"
        text-anchor="middle"
        fill="#8b949e"
        font-family="monospace"
        font-size="17">

    CYBERSECURITY • NETWORKING • SOFTWARE DEVELOPMENT

  </text>

  <text x="500" y="205"
        text-anchor="middle"
        fill="#58a6ff"
        font-family="monospace"
        font-size="13">

    [ SYSTEM ONLINE ]   [ SECURITY LAB ]   [ BUILD • LEARN • ANALYZE ]

  </text>

</svg>
